<svg width="55" height="43" viewBox="0 0 55 43" fill="none" xmlns="http://www.w3.org/2000/svg">
<path d="M3.91475 39.4402H6.19083C6.69659 41.4632 8.92849 43 11.6009 43C14.2728 43 16.5047 41.4717 17.0109 39.4402H37.253C37.7588 41.4632 39.9907 43 42.6631 43C45.335 43 47.5669 41.4717 48.0731 39.4402H48.9089C51.7128 39.4402 54 37.6029 54 35.3503V32.8504C54 32.1524 53.769 31.4814 53.3511 30.8807C53.318 30.819 53.2743 30.7658 53.2301 30.7129C53.1859 30.6512 53.1422 30.589 53.098 30.5273L47.7321 24.2998C46.7754 23.1955 45.214 22.533 43.5429 22.533H33.5369V17.1447C33.5369 15.4134 31.7775 14 29.6224 14L3.90339 14.0004C1.7483 13.9919 0 15.3963 0 17.1276V36.2964C0 38.0273 1.75965 39.4402 3.91475 39.4402ZM11.6004 41.2336C9.76424 41.2336 8.2796 40.0409 8.2796 38.5658C8.2796 37.0907 9.76424 35.8981 11.6004 35.8981C13.4255 35.8981 14.9102 37.0908 14.9212 38.5569V38.5658C14.9212 40.032 13.4256 41.2336 11.6004 41.2336ZM42.6515 41.2336C40.8264 41.2336 39.3307 40.0409 39.3307 38.5658C39.3307 37.0907 40.8153 35.8981 42.6515 35.8981C44.4766 35.8981 45.9613 37.0908 45.9723 38.5569V38.5747C45.9723 40.032 44.4877 41.2336 42.6515 41.2336ZM45.9171 25.2978L50.2273 30.3064H43.2673V24.3H43.542C44.4877 24.2996 45.3782 24.6708 45.9171 25.2978ZM41.068 24.2996V31.1896C41.068 31.6754 41.5628 32.0728 42.1674 32.0728H51.6236C51.7335 32.3202 51.7994 32.5852 51.7994 32.8503V35.3502C51.7994 36.6311 50.502 37.6733 48.9075 37.6733H48.0718C47.555 35.6504 45.3341 34.1313 42.6617 34.1313C39.9898 34.1313 37.7685 35.6596 37.2516 37.6733H33.3262C33.4473 37.3994 33.5241 37.1081 33.5241 36.799L33.525 24.2997L41.068 24.2996ZM2.19908 17.1272C2.19908 16.3675 2.96899 15.7582 3.9032 15.7582H29.6105C30.5562 15.7582 31.3257 16.3767 31.3257 17.1361V36.7989C31.3257 37.2847 30.842 37.6732 30.2373 37.6732H17.0096C16.4928 35.6502 14.272 34.1311 11.5996 34.1311C8.92763 34.1311 6.70633 35.6594 6.1895 37.6732H3.91389C2.96819 37.6732 2.19834 37.0547 2.19834 36.295L2.19908 17.1272Z" fill="#384685"/>
<path d="M44.5 0C38.7147 0 34 3.80768 34 8.5C34 13.1923 38.7036 17 44.5 17C50.2853 17 55 13.1923 55 8.5C54.9995 3.80729 50.2964 0 44.5 0ZM44.5 15.2031C39.929 15.2031 36.2083 12.1911 36.2083 8.49081C36.2083 4.79048 39.929 1.77849 44.5 1.77849C49.071 1.77849 52.7917 4.79948 52.7917 8.49981C52.7917 12.2001 49.071 15.2031 44.5 15.2031Z" fill="#384685"/>
<path d="M46.9847 7.62244H45.0838V5.11435C45.0838 4.62174 44.595 4.21872 43.9976 4.21872C43.4001 4.21872 42.9114 4.62174 42.9114 5.11435V8.51807C42.9114 9.01069 43.4001 9.4137 43.9976 9.4137H46.9852C47.5826 9.4137 48.0714 9.01069 48.0714 8.51807C48.0714 8.02546 47.5821 7.62244 46.9847 7.62244Z" fill="#384685"/>
</svg>
