<svg width="22" height="18" viewBox="0 0 22 18" fill="none" xmlns="http://www.w3.org/2000/svg">
<rect width="22" height="18" fill="#F5F5F5"/>
<g clip-path="url(#clip0_0_1)">
<rect width="1920" height="6867" transform="translate(-681 -777)" fill="white"/>
<rect x="-94" y="-25" width="357" height="94" rx="5" fill="#F4F4F4"/>
<path d="M-29.1323 39.6731H-26.8836C-26.3839 41.7245 -24.1788 43.283 -21.5385 43.283C-18.8987 43.283 -16.6936 41.7332 -16.1935 39.6731H3.80538C4.30506 41.7245 6.51014 43.283 9.15043 43.283C11.7902 43.283 13.9953 41.7332 14.4955 39.6731H15.3212C18.0915 39.6731 20.3511 37.8099 20.3511 35.5256V32.9905C20.3511 32.2827 20.1229 31.6023 19.7101 30.9931C19.6773 30.9305 19.6341 30.8765 19.5905 30.8229C19.5468 30.7603 19.5036 30.6973 19.46 30.6347L14.1586 24.3195C13.2133 23.1997 11.6707 22.5279 10.0197 22.5279H0.133911V17.0637C0.133911 15.308 -1.60432 13.8748 -3.73351 13.8748L-29.1435 13.8751C-31.2727 13.8665 -33 15.2907 -33 17.0464V36.485C-33 38.2403 -31.2615 39.6731 -29.1323 39.6731ZM-21.539 41.4917C-23.3531 41.4917 -24.8199 40.2823 -24.8199 38.7864C-24.8199 37.2905 -23.3531 36.0811 -21.539 36.0811C-19.7358 36.0811 -18.269 37.2905 -18.2581 38.7774V38.7864C-18.2581 40.2732 -19.7357 41.4917 -21.539 41.4917ZM9.13903 41.4917C7.33585 41.4917 5.85811 40.2823 5.85811 38.7864C5.85811 37.2905 7.32491 36.0811 9.13903 36.0811C10.9422 36.0811 12.409 37.2905 12.4199 38.7774V38.7864V38.7954C12.4199 40.2732 10.9531 41.4917 9.13903 41.4917ZM12.3654 25.3316L16.6237 30.4107H9.74742V24.3197H10.0188C10.9532 24.3194 11.833 24.6958 12.3654 25.3316ZM7.57457 24.3194V31.3064C7.57457 31.799 8.06334 32.202 8.66076 32.202H18.0033C18.1119 32.4528 18.1769 32.7216 18.1769 32.9904V35.5255C18.1769 36.8245 16.8952 37.8813 15.3198 37.8813H14.4941C13.9836 35.8299 11.7894 34.2894 9.14908 34.2894C6.50926 34.2894 4.31465 35.8392 3.80403 37.8813H-0.0742264C0.0453453 37.6035 0.121288 37.3081 0.121288 36.9947L0.122196 24.3194L7.57457 24.3194ZM-30.8273 17.046C-30.8273 16.2755 -30.0667 15.6577 -29.1437 15.6577H-3.74534C-2.81101 15.6577 -2.05076 16.2849 -2.05076 17.055V36.9946C-2.05076 37.4872 -2.52861 37.8812 -3.12604 37.8812H-16.1948C-16.7054 35.8298 -18.8995 34.2893 -21.5398 34.2893C-24.1796 34.2893 -26.3743 35.8391 -26.8849 37.8812H-29.1331C-30.0675 37.8812 -30.8281 37.254 -30.8281 36.4836L-30.8273 17.046Z" fill="#384685"/>
<path d="M10.9864 0C5.29406 0 0.65506 3.81612 0.65506 8.51885C0.65506 13.2216 5.28312 17.0377 10.9864 17.0377C16.6788 17.0377 21.3178 13.2216 21.3178 8.51885C21.3173 3.81574 16.6897 0 10.9864 0V0ZM10.9864 15.2368C6.48885 15.2368 2.82791 12.2182 2.82791 8.50964C2.82791 4.8011 6.48885 1.78243 10.9864 1.78243C15.484 1.78243 19.145 4.81013 19.145 8.51866C19.145 12.2272 15.484 15.2368 10.9864 15.2368V15.2368Z" fill="#384685"/>
<path d="M13.9847 7.62247H12.0838V5.11438C12.0838 4.62176 11.595 4.21875 10.9976 4.21875C10.4001 4.21875 9.91138 4.62176 9.91138 5.11438V8.5181C9.91138 9.01072 10.4001 9.41373 10.9976 9.41373H13.9852C14.5826 9.41373 15.0714 9.01072 15.0714 8.5181C15.0714 8.02549 14.5821 7.62247 13.9847 7.62247H13.9847Z" fill="#384685"/>
</g>
<defs>
<clipPath id="clip0_0_1">
<rect width="1920" height="6867" fill="white" transform="translate(-681 -777)"/>
</clipPath>
</defs>
</svg>
