<svg width="54" height="31" viewBox="0 0 54 31" fill="none" xmlns="http://www.w3.org/2000/svg">
<rect width="54" height="31" fill="#F5F5F5"/>
<g clip-path="url(#clip0_0_1)">
<rect width="1920" height="6867" transform="translate(-648 -790)" fill="white"/>
<rect x="-61" y="-38" width="357" height="94" rx="5" fill="#F4F4F4"/>
<path d="M3.86771 26.6731H6.11644C6.61612 28.7245 8.82121 30.283 11.4615 30.283C14.1013 30.283 16.3064 28.7332 16.8065 26.6731H36.8054C37.3051 28.7245 39.5101 30.283 42.1504 30.283C44.7902 30.283 46.9953 28.7332 47.4955 26.6731H48.3212C51.0915 26.6731 53.3511 24.8099 53.3511 22.5256V19.9905C53.3511 19.2827 53.1229 18.6023 52.7101 17.9931C52.6773 17.9305 52.6341 17.8765 52.5905 17.8229C52.5468 17.7603 52.5036 17.6973 52.46 17.6347L47.1586 11.3195C46.2133 10.1997 44.6707 9.52787 43.0197 9.52787H33.1339V4.06369C33.1339 2.30803 31.3957 0.874756 29.2665 0.874756L3.85649 0.875131C1.72729 0.866508 0 2.29075 0 4.0464V23.485C0 25.2403 1.73851 26.6731 3.86771 26.6731ZM11.461 28.4917C9.64691 28.4917 8.18011 27.2823 8.18011 25.7864C8.18011 24.2905 9.64691 23.0811 11.461 23.0811C13.2642 23.0811 14.731 24.2905 14.7419 25.7774V25.7864C14.7419 27.2732 13.2643 28.4917 11.461 28.4917ZM42.139 28.4917C40.3358 28.4917 38.8581 27.2823 38.8581 25.7864C38.8581 24.2905 40.3249 23.0811 42.139 23.0811C43.9422 23.0811 45.409 24.2905 45.4199 25.7774V25.7864V25.7954C45.4199 27.2732 43.9531 28.4917 42.139 28.4917ZM45.3654 12.3316L49.6237 17.4107H42.7474V11.3197H43.0188C43.9532 11.3194 44.833 11.6958 45.3654 12.3316ZM40.5746 11.3194V18.3064C40.5746 18.799 41.0633 19.202 41.6608 19.202H51.0033C51.1119 19.4528 51.1769 19.7216 51.1769 19.9904V22.5255C51.1769 23.8245 49.8952 24.8813 48.3198 24.8813H47.4941C46.9836 22.8299 44.7894 21.2894 42.1491 21.2894C39.5093 21.2894 37.3146 22.8392 36.804 24.8813H32.9258C33.0453 24.6035 33.1213 24.3081 33.1213 23.9947L33.1222 11.3194L40.5746 11.3194ZM2.17266 4.04596C2.17266 3.27555 2.93332 2.65769 3.8563 2.65769H29.2547C30.189 2.65769 30.9492 3.2849 30.9492 4.05498V23.9946C30.9492 24.4872 30.4714 24.8812 29.874 24.8812H16.8052C16.2946 22.8298 14.1005 21.2893 11.4602 21.2893C8.82036 21.2893 6.62575 22.8391 6.11513 24.8812H3.86686C2.93253 24.8812 2.17193 24.254 2.17193 23.4836L2.17266 4.04596Z" fill="#384685"/>
<path d="M43.9864 -13C38.2941 -13 33.6551 -9.18388 33.6551 -4.48115C33.6551 0.221585 38.2831 4.03771 43.9864 4.03771C49.6788 4.03771 54.3178 0.221585 54.3178 -4.48115C54.3173 -9.18426 49.6897 -13 43.9864 -13V-13ZM43.9864 2.23685C39.4888 2.23685 35.8279 -0.781825 35.8279 -4.49036C35.8279 -8.1989 39.4888 -11.2176 43.9864 -11.2176C48.484 -11.2176 52.145 -8.18987 52.145 -4.48134C52.145 -0.772803 48.484 2.23685 43.9864 2.23685V2.23685Z" fill="#384685"/>
</g>
<defs>
<clipPath id="clip0_0_1">
<rect width="1920" height="6867" fill="white" transform="translate(-648 -790)"/>
</clipPath>
</defs>
</svg>
