<svg width="21" height="21" viewBox="0 0 21 21" fill="none" xmlns="http://www.w3.org/2000/svg">
<path d="M19.7713 20.4917C19.588 20.4917 19.4047 20.4218 19.2648 20.2819L10.8272 11.8426C10.5474 11.5627 10.5474 11.1094 10.8272 10.8295C11.107 10.5497 11.5603 10.5497 11.84 10.8295L20.2777 19.2688C20.5574 19.5487 20.5574 20.002 20.2777 20.2819C20.1378 20.4218 19.9545 20.4917 19.7713 20.4917Z" fill="#A8D1E7"/>
<path d="M7.11447 13.7971C5.40359 13.7971 3.692 13.1454 2.3896 11.8424C-0.215897 9.2364 -0.215897 4.99646 2.3896 2.39045C3.65143 1.12802 5.32945 0.432617 7.11447 0.432617C8.9002 0.432617 10.5782 1.12802 11.84 2.39045C14.4455 4.99646 14.4455 9.2364 11.84 11.8424C10.5376 13.1454 8.82606 13.7971 7.11447 13.7971ZM7.11447 1.8654C5.71275 1.8654 4.39426 2.41144 3.40243 3.40347C1.3558 5.45086 1.3558 8.78201 3.40243 10.8294C5.44975 12.8771 8.78129 12.8759 10.8272 10.8295C12.8738 8.78216 12.8739 5.45086 10.8272 3.40347C9.83539 2.41144 8.5169 1.8654 7.11447 1.8654Z" fill="#A8D1E7"/>
</svg>
